<mxfile host="app.diagrams.net" modified="2023-02-28T10:16:36.950Z" agent="5.0 (Windows NT 10.0; Win64; x64) AppleWebKit/537.36 (KHTML, like Gecko) Chrome/100.0.4896.127 Safari/537.36" etag="4otL1ajm157oVQCL3BO1" version="20.8.23" type="github">
  <diagram name="第 1 页" id="ko0XzlLwTc60OF96eFSa">
    <mxGraphModel dx="1185" dy="610" grid="1" gridSize="10" guides="1" tooltips="1" connect="1" arrows="1" fold="1" page="1" pageScale="1" pageWidth="827" pageHeight="1169" math="0" shadow="0">
      <root>
        <mxCell id="0" />
        <mxCell id="1" parent="0" />
        <mxCell id="YhshizgtLyCrTpMG26kO-1" value="" style="rounded=0;whiteSpace=wrap;html=1;fillColor=none;dashed=1;strokeWidth=2;" vertex="1" parent="1">
          <mxGeometry x="180" y="200" width="400" height="70" as="geometry" />
        </mxCell>
        <mxCell id="YhshizgtLyCrTpMG26kO-2" value="系统日志记录" style="rounded=0;whiteSpace=wrap;html=1;strokeWidth=2;fillColor=none;fontSize=14;" vertex="1" parent="1">
          <mxGeometry x="200" y="217.5" width="120" height="35" as="geometry" />
        </mxCell>
        <mxCell id="YhshizgtLyCrTpMG26kO-3" value="日志统计分析" style="rounded=0;whiteSpace=wrap;html=1;strokeWidth=2;fillColor=none;fontSize=14;" vertex="1" parent="1">
          <mxGeometry x="360" y="217.5" width="120" height="35" as="geometry" />
        </mxCell>
        <mxCell id="YhshizgtLyCrTpMG26kO-4" value="数据展示层" style="text;html=1;strokeColor=none;fillColor=none;align=center;verticalAlign=middle;whiteSpace=wrap;rounded=0;fontSize=14;" vertex="1" parent="1">
          <mxGeometry x="490" y="220" width="80" height="30" as="geometry" />
        </mxCell>
        <mxCell id="YhshizgtLyCrTpMG26kO-5" value="" style="rounded=0;whiteSpace=wrap;html=1;fillColor=none;dashed=1;strokeWidth=2;" vertex="1" parent="1">
          <mxGeometry x="180" y="300" width="400" height="70" as="geometry" />
        </mxCell>
        <mxCell id="YhshizgtLyCrTpMG26kO-6" value="动态节点虚拟配置" style="rounded=0;whiteSpace=wrap;html=1;strokeWidth=2;fillColor=none;fontSize=14;" vertex="1" parent="1">
          <mxGeometry x="200" y="317.5" width="120" height="35" as="geometry" />
        </mxCell>
        <mxCell id="YhshizgtLyCrTpMG26kO-7" value="动态变形配置" style="rounded=0;whiteSpace=wrap;html=1;strokeWidth=2;fillColor=none;fontSize=14;" vertex="1" parent="1">
          <mxGeometry x="360" y="317.5" width="120" height="35" as="geometry" />
        </mxCell>
        <mxCell id="YhshizgtLyCrTpMG26kO-8" value="策略配置层" style="text;html=1;strokeColor=none;fillColor=none;align=center;verticalAlign=middle;whiteSpace=wrap;rounded=0;fontSize=14;" vertex="1" parent="1">
          <mxGeometry x="490" y="320" width="80" height="30" as="geometry" />
        </mxCell>
        <mxCell id="YhshizgtLyCrTpMG26kO-9" value="" style="shape=flexArrow;endArrow=classic;html=1;rounded=0;fontSize=14;exitX=0.512;exitY=0.005;exitDx=0;exitDy=0;exitPerimeter=0;width=8.275862068965518;endSize=4.544827586206897;fillColor=#dae8fc;strokeColor=#6c8ebf;" edge="1" parent="1">
          <mxGeometry width="50" height="50" relative="1" as="geometry">
            <mxPoint x="372.79999999999995" y="300.4" as="sourcePoint" />
            <mxPoint x="373" y="270" as="targetPoint" />
          </mxGeometry>
        </mxCell>
        <mxCell id="YhshizgtLyCrTpMG26kO-10" value="" style="shape=flexArrow;endArrow=classic;html=1;rounded=0;fontSize=14;entryX=1;entryY=0.5;entryDx=0;entryDy=0;exitX=0;exitY=0.5;exitDx=0;exitDy=0;width=9.523809523809524;endSize=6.223809523809524;" edge="1" parent="1" source="YhshizgtLyCrTpMG26kO-3" target="YhshizgtLyCrTpMG26kO-2">
          <mxGeometry width="50" height="50" relative="1" as="geometry">
            <mxPoint x="310" y="290" as="sourcePoint" />
            <mxPoint x="360" y="240" as="targetPoint" />
          </mxGeometry>
        </mxCell>
        <mxCell id="YhshizgtLyCrTpMG26kO-13" value="动态节点虚拟配置" style="rounded=0;whiteSpace=wrap;html=1;strokeWidth=2;fillColor=none;fontSize=14;" vertex="1" parent="1">
          <mxGeometry x="200" y="317.5" width="120" height="35" as="geometry" />
        </mxCell>
        <mxCell id="YhshizgtLyCrTpMG26kO-15" value="" style="rounded=0;whiteSpace=wrap;html=1;fillColor=none;dashed=1;strokeWidth=2;" vertex="1" parent="1">
          <mxGeometry x="180" y="410" width="400" height="70" as="geometry" />
        </mxCell>
        <mxCell id="YhshizgtLyCrTpMG26kO-16" value="系统管理" style="rounded=0;whiteSpace=wrap;html=1;strokeWidth=2;fillColor=none;fontSize=14;" vertex="1" parent="1">
          <mxGeometry x="200" y="427.5" width="120" height="35" as="geometry" />
        </mxCell>
        <mxCell id="YhshizgtLyCrTpMG26kO-17" value="状态检测" style="rounded=0;whiteSpace=wrap;html=1;strokeWidth=2;fillColor=none;fontSize=14;" vertex="1" parent="1">
          <mxGeometry x="360" y="427.5" width="120" height="35" as="geometry" />
        </mxCell>
        <mxCell id="YhshizgtLyCrTpMG26kO-18" value="管理层" style="text;html=1;strokeColor=none;fillColor=none;align=center;verticalAlign=middle;whiteSpace=wrap;rounded=0;fontSize=14;" vertex="1" parent="1">
          <mxGeometry x="490" y="427.5" width="80" height="30" as="geometry" />
        </mxCell>
        <mxCell id="YhshizgtLyCrTpMG26kO-19" value="" style="shape=flexArrow;endArrow=classic;html=1;rounded=0;fontSize=14;exitX=0.479;exitY=-0.009;exitDx=0;exitDy=0;exitPerimeter=0;width=8.275862068965518;endSize=4.544827586206897;fillColor=#dae8fc;strokeColor=#6c8ebf;entryX=0.479;entryY=1.018;entryDx=0;entryDy=0;entryPerimeter=0;" edge="1" parent="1" source="YhshizgtLyCrTpMG26kO-15" target="YhshizgtLyCrTpMG26kO-5">
          <mxGeometry width="50" height="50" relative="1" as="geometry">
            <mxPoint x="369.99999999999994" y="410" as="sourcePoint" />
            <mxPoint x="370.2" y="379.6" as="targetPoint" />
          </mxGeometry>
        </mxCell>
      </root>
    </mxGraphModel>
  </diagram>
</mxfile>
